<svg id="Слой_1" data-name="Слой 1" xmlns="http://www.w3.org/2000/svg" viewBox="0 0 100 100">
  <defs>
    <style>
      .cls-1 {
        fill: #f5f5f5;
      }

      .cls-2 {
        fill: #d3d3d3;
      }
    </style>
  </defs>
  <title>fireplace-circle</title>
  <circle class="cls-1" cx="50" cy="50" r="50"/>
  <path class="cls-2" d="M70,69.5H30v-4H70v4m0-32H30v-6H70v6m-4,2v24H60v-16a31,31,0,0,0-10-2,31,31,0,0,0-10,2v16H34v-24H66M55,54.84h-.06l.68,1.1.12.24A5.22,5.22,0,0,1,54.42,62a6.43,6.43,0,0,1-5.26,1.42,5.94,5.94,0,0,1-4.26-2.84A4.83,4.83,0,0,1,44.26,59L44,57.72a6.45,6.45,0,0,1,2.12-5.14,4.45,4.45,0,0,0,.48,4.5l.12.16a.49.49,0,0,0,.56.1.48.48,0,0,0,.32-.44l-.08-.28a7.09,7.09,0,0,1,2.06-7.86,6.3,6.3,0,0,1,2.16-1.16,4.46,4.46,0,0,0,.76,5l1.78,1.46.72.74m-2.78,5.54h0a2.57,2.57,0,0,0,.78-2V58c-.24-1.2-1.3-1.58-2-2.5l-.48-.9a3.13,3.13,0,0,0-.18,1.82,4.69,4.69,0,0,1,.24,2,2.43,2.43,0,0,1-1.84,1.82,2.58,2.58,0,0,0,2.54.72Z"/>
</svg>
