<svg id="Слой_1" data-name="Слой 1" xmlns="http://www.w3.org/2000/svg" viewBox="0 0 16.2 18" fill="#949494"><defs><style>.cls-1{fill:none;stroke:#949494;stroke-linecap:round;stroke-linejoin:round;stroke-width:2px;}</style></defs><title>header-icon-img-3</title><path class="cls-1" d="M16.4,4.8H7.6v0H6.7A1.81,1.81,0,0,0,4.9,6.6V17.2A1.81,1.81,0,0,0,6.7,19H17.3a1.81,1.81,0,0,0,1.8-1.8V6.6a1.81,1.81,0,0,0-1.8-1.8h-.9v0Z" transform="translate(-3.9 -2)"/><polygon points="7.35 10.65 4.95 10.65 6.89 12.05 6.15 14.35 8.1 12.93 10.05 14.35 9.3 12.06 11.24 10.65 8.85 10.65 8.1 8.35 7.35 10.65"/><line class="cls-1" x1="15.2" y1="6.33" x2="1" y2="6.33"/></svg>