<?xml version="1.0" encoding="utf-8"?>
<!-- Generator: Adobe Illustrator 23.0.1, SVG Export Plug-In . SVG Version: 6.00 Build 0)  -->
<svg version="1.1" id="Слой_1" xmlns="http://www.w3.org/2000/svg" xmlns:xlink="http://www.w3.org/1999/xlink" x="0px" y="0px"
	 viewBox="0 0 49 39.96" style="enable-background:new 0 0 49 39.96;" xml:space="preserve">
<style type="text/css">
	.st0{clip-path:url(#SVGID_2_);fill:#FFFFFF;}
	.st1{clip-path:url(#SVGID_2_);fill:#ABABAB;}
	.st2{clip-path:url(#SVGID_2_);fill:#DBD1C8;}
</style>
<g>
	<defs>
		<rect id="SVGID_1_" y="0" width="49" height="39.96"/>
	</defs>
	<clipPath id="SVGID_2_">
		<use xlink:href="#SVGID_1_"  style="overflow:visible;"/>
	</clipPath>
	<path class="st0" d="M0.5,39.46V17.99c0-1.93,1.57-3.5,3.5-3.5h30.02c0.83,0,1.5,0.67,1.5,1.5v23.48H0.5z"/>
	<path class="st1" d="M34.02,14.99c0.55,0,1,0.45,1,1v22.98H1V17.99c0-1.65,1.35-3,3-3H34.02 M34.02,13.99H4c-2.21,0-4,1.79-4,4
		v21.98h36.02V15.99C36.02,14.88,35.12,13.99,34.02,13.99"/>
	<rect x="4.08" y="17.82" class="st2" width="2" height="19.78"/>
	<rect x="7.31" y="17.82" class="st2" width="2" height="19.78"/>
	<rect x="28.99" y="17.82" class="st2" width="2" height="19.78"/>
	<rect x="13.6" y="17.82" class="st2" width="2.58" height="19.78"/>
	<rect x="16.84" y="17.82" class="st2" width="2.58" height="19.78"/>
	<rect x="20.17" y="17.82" class="st2" width="2.58" height="19.78"/>
	<rect x="23.43" y="17.82" class="st2" width="2.58" height="19.78"/>
	<path class="st0" d="M32.47,39.46V4c0-1.93,1.57-3.5,3.5-3.5H47c0.83,0,1.5,0.67,1.5,1.5v37.46H32.47z"/>
	<path class="st1" d="M47,1c0.55,0,1,0.45,1,1v36.96H32.97V4c0-1.65,1.34-3,3-3H47 M47,0H35.97c-2.21,0-4,1.79-4,4v35.96H49V2
		C49,0.9,48.1,0,47,0"/>
	<rect x="36.06" y="3.84" class="st2" width="2" height="33.77"/>
	<rect x="39.28" y="3.84" class="st2" width="2" height="33.77"/>
	<rect x="42.61" y="3.84" class="st2" width="2" height="33.77"/>
	<path class="st0" d="M11.47,39.46V4c0-1.93,1.57-3.5,3.5-3.5H26c0.83,0,1.5,0.67,1.5,1.5v37.46H11.47z"/>
	<path class="st1" d="M26,1c0.55,0,1,0.45,1,1v36.96H11.97V4c0-1.65,1.35-3,3-3H26 M26,0H14.97c-2.21,0-4,1.79-4,4v35.96H28V2
		C28,0.9,27.1,0,26,0"/>
	<rect x="15.06" y="3.84" class="st2" width="2" height="33.77"/>
	<rect x="18.28" y="3.84" class="st2" width="2" height="33.77"/>
	<rect x="21.61" y="3.84" class="st2" width="2" height="33.77"/>
</g>
</svg>
