<svg id="Слой_1" data-name="Слой 1" xmlns="http://www.w3.org/2000/svg" viewBox="0 0 19.5 17.4"><defs><style>.cls-1{fill:#fff;stroke:#949494;stroke-linecap:round;stroke-miterlimit:10;stroke-width:1.5px;}.cls-2{fill:#949494;}</style></defs><title>header-icon-img-6</title><circle class="cls-1" cx="5.25" cy="4.33" r="2.25"/><path class="cls-1" d="M468.93,370.62h-7.2a.83.83,0,0,1-.9-.75V367.7a4,4,0,0,1,3.61-3.68h0a5.26,5.26,0,0,1,1.77,0h0a4,4,0,0,1,3.62,3.68v2.17A.84.84,0,0,1,468.93,370.62Z" transform="translate(-460.08 -355.3)"/><circle class="cls-1" cx="14.25" cy="4.33" r="2.25"/><path class="cls-1" d="M477.93,370.62h-7.2a.83.83,0,0,1-.9-.75V367.7a4,4,0,0,1,3.61-3.68h0a5.26,5.26,0,0,1,1.77,0h0a4,4,0,0,1,3.62,3.68v2.17A.84.84,0,0,1,477.93,370.62Z" transform="translate(-460.08 -355.3)"/><circle class="cls-1" cx="9.75" cy="3.45" r="2.7"/><path class="cls-1" d="M474.15,372h-8.64a1,1,0,0,1-1.08-.9v-2.61c0-2.15,1.81-4,4.34-4.41h0a6.29,6.29,0,0,1,2.12,0h0c2.52.42,4.34,2.26,4.34,4.41v2.61A1,1,0,0,1,474.15,372Z" transform="translate(-460.08 -355.3)"/><polygon class="cls-2" points="9.75 8.64 8.14 12.65 9.75 14.55 11.36 12.65 9.75 8.64"/></svg>