<svg 
 xmlns="http://www.w3.org/2000/svg"
 xmlns:xlink="http://www.w3.org/1999/xlink"
 width="22px" height="24px">
<path fill-rule="evenodd"  stroke-width="2px" stroke="rgb(148, 148, 148)" fill-opacity="0" fill="rgb(0, 0, 0)"
 d="M5.000,2.999 L17.000,2.999 C18.105,2.999 19.000,3.894 19.000,4.999 L19.000,18.999 C19.000,20.103 18.105,20.999 17.000,20.999 L5.000,20.999 C3.895,20.999 3.000,20.103 3.000,18.999 L3.000,4.999 C3.000,3.894 3.895,2.999 5.000,2.999 Z"/>
<path fill-rule="evenodd"  fill="rgb(148, 148, 148)"
 d="M10.500,10.999 L11.500,10.999 C11.776,10.999 12.000,11.223 12.000,11.499 L12.000,16.499 C12.000,16.775 11.776,16.999 11.500,16.999 L10.500,16.999 C10.224,16.999 10.000,16.775 10.000,16.499 L10.000,11.499 C10.000,11.223 10.224,10.999 10.500,10.999 Z"/>
<path fill-rule="evenodd"  fill="rgb(148, 148, 148)"
 d="M11.000,7.999 C11.552,7.999 12.000,8.447 12.000,8.999 C12.000,9.551 11.552,9.999 11.000,9.999 C10.448,9.999 10.000,9.551 10.000,8.999 C10.000,8.447 10.448,7.999 11.000,7.999 Z"/>
</svg>