<?xml version="1.0" encoding="utf-8"?>
<!-- Generator: Adobe Illustrator 23.0.1, SVG Export Plug-In . SVG Version: 6.00 Build 0)  -->
<svg version="1.1" id="Слой_1" xmlns="http://www.w3.org/2000/svg" xmlns:xlink="http://www.w3.org/1999/xlink" x="0px" y="0px"
	 viewBox="0 0 46.38 39.96" style="enable-background:new 0 0 46.38 39.96;" xml:space="preserve">
<style type="text/css">
	.st0{fill:#FFFFFF;}
	.st1{fill:#ABABAB;}
	.st2{fill:#7BC97B;}
</style>
<g>
	<path class="st0" d="M27.86,39.46V0.5h7.53c5.79,0,10.5,4.71,10.5,10.5v28.46H27.86z"/>
	<path class="st1" d="M35.38,1c5.52,0,10,4.48,10,10v27.96H28.36V1H35.38 M35.38,0h-7.03h-1v1v37.96v1h1h17.03h1v-1V11
		C46.38,4.93,41.45,0,35.38,0"/>
	<rect x="30.97" y="29.83" class="st2" width="2" height="6.77"/>
	<rect x="34.19" y="29.83" class="st2" width="2" height="6.77"/>
	<rect x="37.43" y="29.83" class="st2" width="2" height="6.77"/>
	<rect x="40.68" y="29.83" class="st2" width="2" height="6.77"/>
	<rect x="30.97" y="19.45" class="st2" width="2" height="6.77"/>
	<rect x="34.19" y="19.45" class="st2" width="2" height="6.77"/>
	<rect x="37.43" y="19.45" class="st2" width="2" height="6.77"/>
	<rect x="40.68" y="19.45" class="st2" width="2" height="6.77"/>
	<rect x="9.52" y="16.63" class="st0" width="18.33" height="22.83"/>
	<path class="st1" d="M27.35,38.96H10.02V17.13h17.33V38.96z M28.35,16.13H9.02v23.83h19.33V16.13z"/>
	<path class="st0" d="M0.5,39.46V9.66c0-0.83,0.67-1.5,1.5-1.5h6c0.83,0,1.5,0.67,1.5,1.5v29.8H0.5z"/>
	<path class="st1" d="M8,8.66c0.55,0,1,0.45,1,1v29.3H1V9.66c0-0.55,0.45-1,1-1H8 M8,7.66H2c-1.1,0-2,0.9-2,2v30.3h10V9.66
		C10,8.56,9.1,7.66,8,7.66"/>
	<path class="st2" d="M29.36,7.77v4.02h14.82v-0.48c0-1.63-0.13-2.62-0.46-3.54H29.36z"/>
	<path class="st2" d="M43.19,6.56c-1.22-2.38-3.28-3.19-5.73-3.8c-0.15-0.03-0.3-0.07-0.45-0.09c-0.12-0.02-0.23-0.04-0.35-0.06
		c-0.42-0.05-0.85-0.09-1.28-0.09h-6.03v4.04H43.19z"/>
	<rect x="29.36" y="13.02" class="st2" width="15.03" height="4"/>
	<rect x="12.97" y="29.83" class="st2" width="2" height="6.77"/>
	<rect x="16.19" y="29.83" class="st2" width="2" height="6.77"/>
	<rect x="19.43" y="29.83" class="st2" width="2" height="6.77"/>
	<rect x="22.68" y="29.83" class="st2" width="2" height="6.77"/>
	<rect x="12.97" y="19.45" class="st2" width="2" height="6.77"/>
	<rect x="16.19" y="19.45" class="st2" width="2" height="6.77"/>
	<rect x="19.43" y="19.45" class="st2" width="2" height="6.77"/>
	<rect x="22.68" y="19.45" class="st2" width="2" height="6.77"/>
	<rect x="1.99" y="10.17" class="st2" width="6" height="4"/>
	<rect x="1.99" y="15.17" class="st2" width="6" height="4"/>
	<rect x="1.99" y="20.17" class="st2" width="6" height="4"/>
	<rect x="1.99" y="25.17" class="st2" width="6" height="4"/>
	<rect x="1.99" y="30.18" class="st2" width="6" height="4"/>
</g>
</svg>
