<svg id="Layer_1" data-name="Layer 1" xmlns="http://www.w3.org/2000/svg" viewBox="0 0 19.38 17.66" fill="#f5850c"><rect x="4.72" y="0.61" width="7.56" height="7.56" rx="3.78"/><path d="M259.89,315.41a.47.47,0,0,1-.35-.15.48.48,0,0,1,0-.7,5,5,0,0,0,0-7.07.5.5,0,0,1,0-.71.48.48,0,0,1,.7,0,6,6,0,0,1,0,8.48A.49.49,0,0,1,259.89,315.41Z" transform="translate(-247.5 -306.63)"/><path d="M4.72,10.06h7.56A4.72,4.72,0,0,1,17,14.78v0a2.83,2.83,0,0,1-2.83,2.83H2.83A2.83,2.83,0,0,1,0,14.78v0a4.72,4.72,0,0,1,4.72-4.72Z"/><path d="M265.63,324.29a.49.49,0,0,1-.4-.8,3.63,3.63,0,0,0,.65-2.06,6.09,6.09,0,0,0-6-6,.5.5,0,0,1,0-1,7.09,7.09,0,0,1,7,7,4.64,4.64,0,0,1-.86,2.69A.48.48,0,0,1,265.63,324.29Z" transform="translate(-247.5 -306.63)"/></svg>