<svg 
 xmlns="http://www.w3.org/2000/svg"
 xmlns:xlink="http://www.w3.org/1999/xlink"
 width="20px" height="24px">
<path fill-rule="evenodd"  fill="rgb(245, 133, 12)"
 d="M2.000,8.000 C3.105,8.000 4.000,8.895 4.000,10.000 L4.000,22.000 C4.000,23.104 3.105,24.000 2.000,24.000 C0.895,24.000 0.000,23.104 0.000,22.000 L0.000,10.000 C0.000,8.895 0.895,8.000 2.000,8.000 Z"/>
<path fill-rule="evenodd"  fill="rgb(245, 133, 12)"
 d="M10.000,-0.000 C11.105,-0.000 12.000,0.895 12.000,2.000 L12.000,22.000 C12.000,23.104 11.105,24.000 10.000,24.000 C8.895,24.000 8.000,23.104 8.000,22.000 L8.000,2.000 C8.000,0.895 8.895,-0.000 10.000,-0.000 Z"/>
<path fill-rule="evenodd"  fill="rgb(245, 133, 12)"
 d="M18.000,11.999 C19.105,11.999 20.000,12.895 20.000,13.999 L20.000,22.000 C20.000,23.104 19.105,24.000 18.000,24.000 C16.895,24.000 16.000,23.104 16.000,22.000 L16.000,13.999 C16.000,12.895 16.895,11.999 18.000,11.999 Z"/>
</svg>