<svg id="Capa_1" data-name="Capa 1" xmlns="http://www.w3.org/2000/svg" viewBox="0 0 21.57 20" fill="#f5850c"><path d="M254.4,194.68,252.12,186a9.35,9.35,0,0,1,2.3-.29,9,9,0,0,1,6.35,2.63h0a9,9,0,0,1,0,12.71h0a9,9,0,0,1-6.36,2.62v-9h0v9a9,9,0,0,1-6.36-2.62h0a9,9,0,0,1-2.63-6.35C251.79,194.71,254.14,194.68,254.4,194.68Z" transform="translate(-243.84 -183.68)"/><path d="M254.41,185.68h0a8.93,8.93,0,0,0-1,.07A8.93,8.93,0,0,1,254.41,185.68Z" transform="translate(-243.84 -183.68)"/><path d="M252.29,185.94c.26-.06.53-.11.8-.15C252.82,185.83,252.55,185.88,252.29,185.94Z" transform="translate(-243.84 -183.68)"/><path d="M254.4,194.68,252.12,186a9.35,9.35,0,0,1,2.3-.29,9,9,0,0,1,6.35,2.63h0a9,9,0,0,1,0,12.71h0a9,9,0,0,1-6.36,2.62v-9h0v9a9,9,0,0,1-6.36-2.62h0a9,9,0,0,1-2.63-6.35C251.79,194.71,254.14,194.68,254.4,194.68Z" transform="translate(-243.84 -183.68)"/><path d="M253.14,193.75l-2.36-9a9.28,9.28,0,0,0-4.21,2.4v0a9.31,9.31,0,0,0-2.72,6.58C250.44,193.72,252.87,193.75,253.14,193.75Z" transform="translate(-243.84 -183.68)"/><path d="M261.84,202.59a.54.54,0,0,1-.36-.14.51.51,0,0,1,0-.71,10,10,0,0,0-7.08-17.06.51.51,0,0,1-.5-.5.5.5,0,0,1,.5-.5,11,11,0,0,1,7.79,18.77A.52.52,0,0,1,261.84,202.59Z" transform="translate(-243.84 -183.68)"/></svg>