<svg id="Слой_1" data-name="Слой 1" xmlns="http://www.w3.org/2000/svg" viewBox="0 0 17.96 18.5" fill="#f5850c"><path d="M263.8,253.86a.91.91,0,0,0-.76-.61l-4.82-.43-1.9-4.46a.89.89,0,0,0-1.64,0l-1.9,4.46-4.82.43a.9.9,0,0,0-.51,1.56L251.1,258,250,262.73a.91.91,0,0,0,.35.92.9.9,0,0,0,.52.17.81.81,0,0,0,.45-.13l4.16-2.48,4.16,2.48a.88.88,0,0,0,1,0,.89.89,0,0,0,.35-.92L259.9,258l3.65-3.19A.91.91,0,0,0,263.8,253.86Z" transform="translate(-247.15 -247.82)"/><path d="M260.55,266.32a2.94,2.94,0,0,1-.51-.05l-.22,0a2.43,2.43,0,0,1-.81-.31l-3.51-2.1-3.23,1.93a.49.49,0,0,1-.69-.17.51.51,0,0,1,.17-.69l3.75-2.24,4,2.41a1.52,1.52,0,0,0,.5.19l.22.05a1.58,1.58,0,0,0,1.84-1.89L261,258.63l3.29-2.78a.5.5,0,1,1,.65.76l-2.83,2.4.94,4.16a2.57,2.57,0,0,1-2.5,3.15Z" transform="translate(-247.15 -247.82)"/></svg>