<svg id="Слой_1" data-name="Слой 1" xmlns="http://www.w3.org/2000/svg" viewBox="0 0 106.06 75.68"><defs><style>.cls-1{fill:#d3d3d3;}.cls-2{fill:#f1f1f1;}.cls-3{fill:#a59b92;}.cls-4{fill:#e0e0e0;}.cls-5{fill:#c1c1c1;}.cls-6{fill:#8fe68f;}.cls-7{font-size:12px;fill:#fff;font-family:Circe-Bold, Circe;font-weight:700;}</style></defs><title>zagorodna-number-img-2</title><rect class="cls-1" y="70.18" width="106.06" height="5.5"/><path class="cls-2" d="M42,45.46V.5H53.54A10.51,10.51,0,0,1,64,11V45.46Z" transform="translate(0 -0.5)"/><rect class="cls-3" x="47.13" y="32.33" width="2" height="6.77"/><rect class="cls-3" x="50.35" y="32.33" width="2" height="6.77"/><rect class="cls-3" x="53.59" y="32.33" width="2" height="6.77"/><rect class="cls-3" x="56.84" y="32.33" width="2" height="6.77"/><rect class="cls-3" x="47.13" y="21.95" width="2" height="6.77"/><rect class="cls-3" x="50.35" y="21.95" width="2" height="6.77"/><rect class="cls-3" x="53.59" y="21.95" width="2" height="6.77"/><rect class="cls-3" x="56.84" y="21.95" width="2" height="6.77"/><path class="cls-4" d="M13.86,35.84H28.2a2,2,0,0,1,2,2V58.67H11.86V37.84A2,2,0,0,1,13.86,35.84Z" transform="translate(0 -0.5)"/><path class="cls-3" d="M43.52,7.78v4H62.34v-.48a10,10,0,0,0-.46-3.54Z" transform="translate(0 -0.5)"/><path class="cls-3" d="M61.35,6.56c-1.22-2.38-3.28-3.18-5.73-3.79l-.45-.1-.35-.06a10.73,10.73,0,0,0-1.28-.08h-10v4Z" transform="translate(0 -0.5)"/><rect class="cls-3" x="43.52" y="12.52" width="19.03" height="4"/><rect class="cls-3" x="15.31" y="48.54" width="2" height="6.77"/><rect class="cls-3" x="18.53" y="48.54" width="2" height="6.77"/><rect class="cls-3" x="21.77" y="48.54" width="2" height="6.77"/><rect class="cls-3" x="25.02" y="48.54" width="2" height="6.77"/><rect class="cls-3" x="15.31" y="38.16" width="2" height="6.77"/><rect class="cls-3" x="18.53" y="38.16" width="2" height="6.77"/><rect class="cls-3" x="21.77" y="38.16" width="2" height="6.77"/><rect class="cls-3" x="25.02" y="38.16" width="2" height="6.77"/><path class="cls-5" d="M42,45H64a6,6,0,0,1,6,6V70.18a0,0,0,0,1,0,0H36a0,0,0,0,1,0,0V51A6,6,0,0,1,42,45Z"/><path class="cls-5" d="M12,58.18H30a6,6,0,0,1,6,6v6a0,0,0,0,1,0,0H6a0,0,0,0,1,0,0v-6A6,6,0,0,1,12,58.18Z"/><path class="cls-4" d="M75.86,58.67V37.84a2,2,0,0,1,2-2H92.2a2,2,0,0,1,2,2V58.67" transform="translate(0 -0.5)"/><rect class="cls-3" x="79.31" y="48.54" width="2" height="6.77"/><rect class="cls-3" x="82.53" y="48.54" width="2" height="6.77"/><rect class="cls-3" x="85.77" y="48.54" width="2" height="6.77"/><rect class="cls-3" x="89.02" y="48.54" width="2" height="6.77"/><rect class="cls-3" x="79.31" y="38.16" width="2" height="6.77"/><rect class="cls-3" x="82.53" y="38.16" width="2" height="6.77"/><rect class="cls-3" x="85.77" y="38.16" width="2" height="6.77"/><rect class="cls-3" x="89.02" y="38.16" width="2" height="6.77"/><path class="cls-5" d="M76,58.18H94a6,6,0,0,1,6,6v6a0,0,0,0,1,0,0H70a0,0,0,0,1,0,0v-6A6,6,0,0,1,76,58.18Z"/><circle class="cls-6" cx="53.03" cy="58.18" r="10"/><text class="cls-7" transform="translate(50.59 62.02)">1</text></svg>