<svg id="Слой_1" data-name="Слой 1" xmlns="http://www.w3.org/2000/svg" viewBox="0 0 119.23 73"><defs><style>.cls-1{fill:#e0e0e0;}.cls-2{fill:#d3d3d3;}.cls-3{fill:#a59b92;}.cls-4{fill:#f1f1f1;}.cls-5{fill:none;stroke:#d3d3d3;stroke-linecap:round;stroke-linejoin:round;stroke-width:2px;}.cls-6{fill:#c1c1c1;}.cls-7{fill:#8fe68f;}</style></defs><title>zagorodna-number-img-1</title><polygon class="cls-1" points="90.87 28.19 90.87 73 119.23 73 119.23 11.16 90.87 28.19"/><polygon class="cls-2" points="98.64 36.28 92.97 36.28 92.97 29.05 98.64 25.67 98.64 36.28"/><polygon class="cls-3" points="104.82 36.28 99.15 36.28 99.15 25.54 104.82 22.16 104.82 36.28"/><polygon class="cls-3" points="110.99 36.28 105.32 36.28 105.32 22.02 110.99 18.64 110.99 36.28"/><polygon class="cls-3" points="117.18 36.28 111.51 36.28 111.51 18.41 117.18 15.03 117.18 36.28"/><path class="cls-3" d="M96.74,61.79h10.5a1,1,0,0,0,1-1V50.24a1,1,0,0,0-1-1H96.74a1,1,0,0,0-1,1V60.79a1,1,0,0,0,1,1" transform="translate(0 0)"/><path class="cls-1" d="M.12,73H28.49V11.16l-26,15.59A5,5,0,0,0,.12,31Z" transform="translate(0 0)"/><path class="cls-3" d="M7.89,36.28H2.22V30.46a2.49,2.49,0,0,1,1.21-2.13l4.46-2.66Z" transform="translate(0 0)"/><polygon class="cls-3" points="14.08 36.28 8.41 36.28 8.41 25.54 14.08 22.16 14.08 36.28"/><polygon class="cls-3" points="20.24 36.28 14.57 36.28 14.57 22.02 20.24 18.64 20.24 36.28"/><polygon class="cls-3" points="26.43 36.28 20.76 36.28 20.76 18.41 26.43 15.03 26.43 36.28"/><path class="cls-4" d="M100.77,24.5V73h-77V24.5a2,2,0,0,1,1-1.73L62.25,1,99.78,22.77a2,2,0,0,1,1,1.73" transform="translate(0 0)"/><path class="cls-5" d="M23.72,24.5a2,2,0,0,1,1-1.73L62.25,1,99.78,22.77a2,2,0,0,1,1,1.73" transform="translate(0 0)"/><path class="cls-3" d="M56.69,34.82H51V24.05A2.48,2.48,0,0,1,52.18,22l4.51-2.83Z" transform="translate(0 0)"/><path class="cls-3" d="M49.25,34.82H43.58V24.05A2.48,2.48,0,0,1,44.74,22l4.51-2.83Z" transform="translate(0 0)"/><path class="cls-3" d="M41.28,34.82H35.61V29.19a2.47,2.47,0,0,1,1.16-2.1l4.51-2.83Z" transform="translate(0 0)"/><path class="cls-3" d="M66,34.82H58.24V18.29l2.48-1.65a2.46,2.46,0,0,1,2.75,0L66,18.29Z" transform="translate(0 0)"/><path class="cls-3" d="M67.5,34.82h5.67V24.05A2.48,2.48,0,0,0,72,22L67.5,19.12Z" transform="translate(0 0)"/><path class="cls-3" d="M74.94,34.82h5.68V24.05A2.47,2.47,0,0,0,79.45,22l-4.51-2.83Z" transform="translate(0 0)"/><path class="cls-3" d="M82.91,34.82h5.67V29.19a2.47,2.47,0,0,0-1.16-2.1l-4.51-2.83Z" transform="translate(0 0)"/><path class="cls-3" d="M36.53,61.79H47a1,1,0,0,0,1-1V50.24a1,1,0,0,0-1-1H36.53a1,1,0,0,0-1,1V60.79a1,1,0,0,0,1,1" transform="translate(0 0)"/><path class="cls-3" d="M6,61.79h10.5a1,1,0,0,0,1-1V50.24a1,1,0,0,0-1-1H6a1,1,0,0,0-1,1V60.79a1,1,0,0,0,1,1" transform="translate(0 0)"/><path class="cls-3" d="M55.65,67.5h12.5V50.24a1,1,0,0,0-1-1H56.65a1,1,0,0,0-1,1Z" transform="translate(0 0)"/><path class="cls-3" d="M76.85,61.79H87.36a1,1,0,0,0,1-1V50.24a1,1,0,0,0-1-1H76.85a1,1,0,0,0-1,1V60.79a1,1,0,0,0,1,1" transform="translate(0 0)"/><rect class="cls-2" x="0.12" y="67.5" width="119.11" height="5.5"/><rect class="cls-6" x="100.77" y="67.5" width="18.46" height="5.5"/><path class="cls-2" d="M76.9,45.14h-30a3,3,0,0,1,3-3h24a3,3,0,0,1,3,3" transform="translate(0 0)"/><path class="cls-7" d="M101,67.5a3.84,3.84,0,0,1-2.4-3.26c-.09-2.39,1.24-3.64,2.4-3.64s2.87.77,3.25,2,.86-3.89,3.73-4.24a4,4,0,0,1,4.39,2.81c.31,1,1.07-2.46,2.51-2.81a4.22,4.22,0,0,1,4.31,1.17v8Z" transform="translate(0 0)"/><rect class="cls-6" y="67.5" width="23.72" height="5.5"/><path class="cls-7" d="M19.61,67.5A3.84,3.84,0,0,0,22,64.24c.09-2.39-1.24-3.64-2.4-3.64s-2.87.77-3.25,2-.86-3.89-3.74-4.24a4,4,0,0,0-4.38,2.81c-.31,1-1.07-2.46-2.51-2.81a4.67,4.67,0,0,0-4.5,1.37C.37,60.8,0,60.89,0,63.48v4Z" transform="translate(0 0)"/></svg>