<svg id="Слой_1" data-name="Слой 1" xmlns="http://www.w3.org/2000/svg" viewBox="0 0 106.06 75.87"><defs><style>.cls-1{fill:#e0e0e0;}.cls-2{fill:#a59b92;}.cls-3{fill:#dbd1c8;}.cls-4{fill:#f1f1f1;}.cls-5{fill:#8fe68f;}.cls-6{fill:#d3d3d3;}</style></defs><title>zagorodna-number-img-4</title><path class="cls-1" d="M0,72.32V32.63a6.47,6.47,0,0,1,6.47-6.46H61.94a2.77,2.77,0,0,1,2.77,2.77V72.32Z" transform="translate(0 -0.32)"/><rect class="cls-2" x="6.62" y="32.01" width="3.7" height="36.55"/><rect class="cls-2" x="12.58" y="32.01" width="3.7" height="36.55"/><rect class="cls-2" x="52.64" y="32.01" width="3.7" height="36.55"/><rect class="cls-3" x="24.2" y="32.01" width="4.78" height="36.55"/><rect class="cls-3" x="30.2" y="32.01" width="4.78" height="36.55"/><rect class="cls-3" x="36.36" y="32.01" width="4.78" height="36.55"/><rect class="cls-3" x="42.37" y="32.01" width="4.78" height="36.55"/><path class="cls-4" d="M59.09,72.32V6.79A6.47,6.47,0,0,1,65.55.32H85.93a2.78,2.78,0,0,1,2.78,2.77V72.32Z" transform="translate(0 -0.32)"/><rect class="cls-2" x="65.71" y="6.16" width="3.7" height="62.4"/><rect class="cls-2" x="71.66" y="6.16" width="3.7" height="62.4"/><rect class="cls-2" x="77.81" y="6.16" width="3.7" height="62.4"/><path class="cls-4" d="M20.28,72.32V6.79A6.47,6.47,0,0,1,26.74.32H47.12A2.78,2.78,0,0,1,49.9,3.09V72.32Z" transform="translate(0 -0.32)"/><rect class="cls-2" x="26.9" y="6.16" width="3.7" height="62.4"/><rect class="cls-2" x="32.85" y="6.16" width="3.7" height="62.4"/><rect class="cls-2" x="39.01" y="6.16" width="3.7" height="62.4"/><path class="cls-5" d="M98.88,68.4A6.83,6.83,0,0,1,93.7,66a8.45,8.45,0,0,1,0-10.92,6.79,6.79,0,0,1,10.36,0,8.45,8.45,0,0,1,0,10.92,6.81,6.81,0,0,1-5.18,2.4" transform="translate(0 -0.32)"/><path class="cls-2" d="M99.41,63.68V62.11a.53.53,0,0,0-.53-.54.54.54,0,0,0-.53.54v1.57l-.84-.83a.53.53,0,0,0-.75,0,.54.54,0,0,0,0,.76l1.59,1.58v5.49h1.06v-7Z" transform="translate(0 -0.32)"/><path class="cls-5" d="M92.88,68.4A6.83,6.83,0,0,1,87.7,66a8.45,8.45,0,0,1,0-10.92,6.79,6.79,0,0,1,10.36,0,8.45,8.45,0,0,1,0,10.92,6.81,6.81,0,0,1-5.18,2.4" transform="translate(0 -0.32)"/><path class="cls-2" d="M95,62.85h0a.53.53,0,0,0-.75,0l-.84.83V62.11a.53.53,0,0,0-.53-.54.54.54,0,0,0-.53.54v1.57l-.84-.83a.53.53,0,0,0-.75,0,.54.54,0,0,0,0,.76l1.59,1.58v5.49h1.06V65.19L95,63.61a.54.54,0,0,0,0-.76" transform="translate(0 -0.32)"/><rect class="cls-6" y="70.36" width="106.06" height="5.5"/></svg>