<svg id="Слой_1" data-name="Слой 1" xmlns="http://www.w3.org/2000/svg" viewBox="0 0 106.06 72.19"><defs><style>.cls-1{fill:#d3d3d3;}.cls-2{fill:#a59b92;}.cls-3{fill:#f1f1f1;}.cls-4{fill:#8fe68f;}.cls-5{fill:#e0e0e0;}.cls-6{fill:none;stroke:#d3d3d3;stroke-linecap:round;stroke-linejoin:round;stroke-width:2px;}</style></defs><title>zagorodna-number-img-3</title><rect class="cls-1" y="66.68" width="106.06" height="5.5"/><rect class="cls-2" x="45.28" y="52.4" width="15.5" height="14.28"/><rect class="cls-3" x="2" y="2" width="102.06" height="48.4" rx="4"/><path class="cls-4" d="M100.06,8a2,2,0,0,1,2,2V50.4a2,2,0,0,1-2,2H6a2,2,0,0,1-2-2V10A2,2,0,0,1,6,8h94.06m0-4H6a6,6,0,0,0-6,6V50.4a6,6,0,0,0,6,6h94.06a6,6,0,0,0,6-6V10a6,6,0,0,0-6-6Z" transform="translate(0 -4)"/><line class="cls-1" x1="70.69" y1="18.8" x2="73.84" y2="20.62"/><polygon class="cls-1" points="53.03 8 35.34 18.25 35.34 44 70.69 44 70.69 18.25 53.03 8"/><polygon class="cls-5" points="53.03 8 35.34 18.25 35.34 44 70.69 44 70.69 18.25 53.03 8"/><path class="cls-2" d="M50.71,29.1h8.65V23.39a2.4,2.4,0,0,0-1.12-2L56.07,20l-.9-.48L52.94,18l-2.23,1.49-.9.48-2.17,1.36a2.42,2.42,0,0,0-1.12,2V29.1h4.19Z" transform="translate(0 -4)"/><path class="cls-2" d="M44.66,41.44h5.05a1.1,1.1,0,0,0,1.1-1.1V35.27a1.1,1.1,0,0,0-1.1-1.1H44.66a1.1,1.1,0,0,0-1.1,1.1v5.07a1.1,1.1,0,0,0,1.1,1.1" transform="translate(0 -4)"/><path class="cls-2" d="M56.32,41.44h5a1.1,1.1,0,0,0,1.1-1.1V35.27a1.1,1.1,0,0,0-1.1-1.1h-5a1.1,1.1,0,0,0-1.1,1.1v5.07a1.1,1.1,0,0,0,1.1,1.1" transform="translate(0 -4)"/><line class="cls-6" x1="53.03" y1="8" x2="73.84" y2="20.09"/><path class="cls-6" d="M32.22,24.09,53,12Z" transform="translate(0 -4)"/></svg>